<svg xmlns="http://www.w3.org/2000/svg" viewBox="0 0 89 40.05" width="89" height="40"><defs><linearGradient id="g1" gradientUnits="userSpaceOnUse" x1="0" y1="0.92" x2="2.81" y2="0.92"><stop offset="0" stop-color="#977829"/><stop offset="0.483" stop-color="#d9b25e"/><stop offset="1" stop-color="#946426"/></linearGradient></defs><path transform="translate(43.86 19.88)" fill="url(#g1)" d="M0 1.85L0 1.05L1.41 0L2.81 0.99L2.81 1.84L1.41 0.82L0 1.85Z"/><defs><linearGradient id="g2" gradientUnits="userSpaceOnUse" x1="0" y1="12.55" x2="11.93" y2="12.55"><stop offset="0" stop-color="#977829"/><stop offset="0.483" stop-color="#d9b25e"/><stop offset="1" stop-color="#946426"/></linearGradient></defs><path transform="translate(39.32 0)" fill="url(#g2)" d="M0.87 2.29L0.87 6.87L0 7.51L0 25.06L3.55 22.48L3.55 15.6L4.58 16.31C4.59 16.32 4.61 16.34 4.62 16.35L5.98 17.32L7.16 16.47L8.38 15.62L8.38 22.45L8.51 22.55C8.51 22.55 11.39 24.69 11.41 24.71L11.93 25.11L11.93 24.44L11.93 10.2L11.06 9.56L11.06 6.89L6.4 3.43L6.41 4.08L6.41 10.65C6.4 12.96 6.4 15.21 6.41 16.21L5.98 16.52L5.52 16.19L5.52 3.44L3.94 4.61L3.94 0L0.87 2.29ZM1.52 2.62L3.29 1.3L3.29 5.09L1.52 6.39L1.52 2.62ZM7.06 6.6L7.06 4.73L10.41 7.22L10.41 9.09L7.06 6.6ZM0.65 7.84L1.38 7.29L1.52 7.2L3.29 5.89L3.81 5.52L4.87 4.73L4.87 15.72L2.9 14.35L2.9 22.15L0.65 23.78L0.65 7.84ZM7.06 15.74C7.06 14.6 7.06 12.65 7.06 10.65L7.06 7.41L10.5 9.97C10.52 9.98 10.54 10 10.57 10.01L11.28 10.53L11.28 23.8L9.03 22.13L9.03 14.38L7.08 15.73L7.06 15.75L7.06 15.74Z"/><defs><linearGradient id="g3" gradientUnits="userSpaceOnUse" x1="44.5" y1="8.22" x2="44.5" y2="0"><stop offset="0" stop-color="#977829"/><stop offset="0.483" stop-color="#d9b25e"/><stop offset="1" stop-color="#946426"/></linearGradient></defs><path transform="translate(0 26.8)" fill="url(#g3)" d="M87.14 0C87.14 0.24 87.05 0.42 86.88 0.56C86.71 0.69 86.49 0.75 86.22 0.75C85.93 0.75 85.7 0.69 85.54 0.56C85.38 0.42 85.3 0.24 85.29 0L84.64 0C84.65 0.4 84.79 0.72 85.06 0.93C85.33 1.15 85.72 1.26 86.22 1.26C86.71 1.26 87.09 1.15 87.37 0.93C87.64 0.71 87.78 0.4 87.78 0L87.14 0ZM64.19 2.06C63.67 2.35 63.26 2.74 62.97 3.24C62.68 3.74 62.53 4.3 62.53 4.93C62.53 5.56 62.68 6.12 62.97 6.62C63.26 7.12 63.67 7.51 64.18 7.79C64.7 8.08 65.28 8.22 65.92 8.22C66.42 8.22 66.88 8.14 67.29 7.96C67.71 7.79 68.07 7.54 68.36 7.21L67.77 6.63C67.28 7.15 66.68 7.4 65.96 7.4C65.49 7.4 65.06 7.3 64.67 7.08C64.29 6.87 63.99 6.57 63.77 6.19C63.55 5.82 63.44 5.4 63.44 4.93C63.44 4.46 63.55 4.04 63.77 3.67C63.99 3.29 64.29 2.99 64.67 2.78C65.06 2.56 65.49 2.46 65.96 2.46C66.68 2.46 67.28 2.71 67.77 3.22L68.36 2.64C68.07 2.31 67.71 2.06 67.3 1.89C66.88 1.72 66.43 1.64 65.93 1.64C65.28 1.64 64.7 1.78 64.19 2.06ZM49.58 2.06C49.06 2.35 48.66 2.74 48.36 3.25C48.06 3.75 47.92 4.31 47.92 4.93C47.92 5.55 48.06 6.11 48.36 6.61C48.66 7.12 49.06 7.51 49.58 7.79C50.1 8.08 50.68 8.22 51.33 8.22C51.97 8.22 52.55 8.08 53.07 7.79C53.59 7.51 54 7.12 54.29 6.62C54.58 6.12 54.73 5.56 54.73 4.93C54.73 4.3 54.58 3.74 54.29 3.24C54 2.74 53.59 2.35 53.07 2.06C52.55 1.78 51.97 1.64 51.33 1.64C50.68 1.64 50.1 1.78 49.58 2.06ZM50.05 7.08C49.67 6.87 49.37 6.57 49.16 6.19C48.94 5.82 48.83 5.4 48.83 4.93C48.83 4.46 48.94 4.04 49.16 3.67C49.37 3.29 49.67 2.99 50.05 2.78C50.43 2.56 50.86 2.46 51.33 2.46C51.8 2.46 52.22 2.56 52.6 2.78C52.97 2.99 53.27 3.29 53.49 3.67C53.7 4.04 53.81 4.46 53.81 4.93C53.81 5.4 53.7 5.82 53.49 6.19C53.27 6.57 52.97 6.87 52.6 7.08C52.22 7.3 51.8 7.4 51.33 7.4C50.86 7.4 50.43 7.3 50.05 7.08ZM36.73 2.06C36.21 2.35 35.8 2.74 35.51 3.24C35.22 3.74 35.07 4.3 35.07 4.93C35.07 5.56 35.22 6.12 35.51 6.62C35.8 7.12 36.21 7.51 36.72 7.79C37.24 8.08 37.82 8.22 38.46 8.22C38.96 8.22 39.42 8.14 39.83 7.96C40.25 7.79 40.61 7.54 40.9 7.21L40.31 6.63C39.82 7.15 39.22 7.4 38.5 7.4C38.03 7.4 37.6 7.3 37.21 7.08C36.83 6.87 36.53 6.57 36.31 6.19C36.09 5.82 35.98 5.4 35.98 4.93C35.98 4.46 36.09 4.04 36.31 3.67C36.53 3.29 36.83 2.99 37.21 2.78C37.6 2.56 38.03 2.46 38.5 2.46C39.22 2.46 39.82 2.71 40.31 3.22L40.9 2.64C40.61 2.31 40.25 2.06 39.84 1.89C39.42 1.72 38.97 1.64 38.47 1.64C37.83 1.64 37.25 1.78 36.73 2.06ZM28.96 2.06C28.44 2.35 28.04 2.74 27.74 3.25C27.44 3.75 27.3 4.31 27.3 4.93C27.3 5.55 27.44 6.11 27.74 6.61C28.04 7.12 28.44 7.51 28.96 7.79C29.48 8.08 30.06 8.22 30.71 8.22C31.35 8.22 31.93 8.08 32.45 7.79C32.97 7.51 33.38 7.12 33.67 6.62C33.96 6.12 34.11 5.56 34.11 4.93C34.11 4.3 33.96 3.74 33.67 3.24C33.38 2.74 32.97 2.35 32.45 2.06C31.93 1.78 31.35 1.64 30.71 1.64C30.06 1.64 29.48 1.78 28.96 2.06ZM29.43 7.08C29.05 6.87 28.75 6.57 28.54 6.19C28.32 5.82 28.21 5.4 28.21 4.93C28.21 4.46 28.32 4.04 28.54 3.67C28.75 3.29 29.05 2.99 29.43 2.78C29.81 2.56 30.24 2.46 30.71 2.46C31.18 2.46 31.6 2.56 31.98 2.78C32.35 2.99 32.65 3.29 32.87 3.67C33.08 4.04 33.19 4.46 33.19 4.93C33.19 5.4 33.08 5.82 32.87 6.19C32.65 6.57 32.35 6.87 31.98 7.08C31.6 7.3 31.18 7.4 30.71 7.4C30.24 7.4 29.81 7.3 29.43 7.08ZM88.16 1.71L84.37 6.68L84.37 1.71L83.46 1.71L83.46 8.15L84.3 8.15L88.1 3.19L88.1 8.15L89 8.15L89 1.71L88.16 1.71ZM80.62 1.71L76.83 6.68L76.83 1.71L75.92 1.71L75.92 8.15L76.77 8.15L80.57 3.19L80.57 8.15L81.46 8.15L81.46 1.71L80.62 1.71ZM73.89 1.71L71.88 4.51L70.52 4.51L70.52 1.71L69.63 1.71L69.63 8.15L70.52 8.15L70.52 5.32L71.86 5.32L73.94 8.15L74.98 8.15L72.58 4.83L74.87 1.71L73.89 1.71ZM56.21 1.71L56.21 8.15L59.14 8.15C59.92 8.15 60.51 8 60.91 7.69C61.32 7.38 61.52 6.95 61.52 6.39C61.52 5.98 61.41 5.63 61.19 5.37C60.96 5.1 60.64 4.91 60.2 4.81C60.52 4.69 60.77 4.5 60.94 4.26C61.11 4.01 61.2 3.72 61.2 3.37C61.2 2.83 61 2.42 60.61 2.14C60.22 1.85 59.67 1.71 58.97 1.71L56.21 1.71ZM57.12 2.44L58.9 2.44C59.34 2.44 59.68 2.53 59.92 2.71C60.16 2.89 60.28 3.15 60.28 3.49C60.28 3.84 60.16 4.1 59.92 4.28C59.69 4.45 59.35 4.54 58.9 4.54L57.12 4.54L57.12 2.44ZM57.12 5.24L59.12 5.24C59.61 5.24 59.98 5.33 60.23 5.5C60.47 5.68 60.6 5.95 60.6 6.32C60.6 7.05 60.11 7.42 59.12 7.42L57.12 7.42L57.12 5.24ZM46.43 1.71L44.42 4.51L43.06 4.51L43.06 1.71L42.17 1.71L42.17 8.15L43.06 8.15L43.06 5.32L44.4 5.32L46.48 8.15L47.52 8.15L45.12 4.83L47.41 1.71L46.43 1.71ZM25.07 1.71L22.43 6.24L19.76 1.71L19.01 1.71L19.01 8.15L19.89 8.15L19.89 3.49L22.2 7.37L22.63 7.37L24.94 3.46L24.95 8.15L25.83 8.15L25.82 1.71L25.07 1.71ZM14.3 1.71L12.29 4.51L10.93 4.51L10.93 1.71L10.04 1.71L10.04 8.15L10.93 8.15L10.93 5.32L12.27 5.32L14.35 8.15L15.39 8.15L12.99 4.83L15.28 1.71L14.3 1.71ZM7.94 1.71L6.22 4.51L4.99 4.51L4.99 1.71L4.09 1.71L4.09 4.51L2.85 4.51L1.14 1.71L0.16 1.71L2.12 4.8L0 8.15L1.07 8.15L2.87 5.32L4.09 5.32L4.09 8.15L4.99 8.15L4.99 5.32L6.21 5.32L8 8.15L9.07 8.15L6.96 4.82L8.92 1.71L7.94 1.71Z"/><defs><linearGradient id="g4" gradientUnits="userSpaceOnUse" x1="0" y1="0.33" x2="47.7" y2="0.33"><stop offset="0" stop-color="#977829"/><stop offset="0.483" stop-color="#d9b25e"/><stop offset="1" stop-color="#946426"/></linearGradient></defs><path transform="translate(21.42 38.67)" fill="url(#g4)" d="M0 0.65L47.7 0.65L47.7 0L0 0L0 0.65Z"/></svg>