<svg xmlns="http://www.w3.org/2000/svg" viewBox="0 0 42 42" width="42" height="42"><path transform="translate(0 0)" fill="#132640" d="M10.77 0L31.23 0C37.18 0 42 4.82 42 10.77L42 31.23C42 37.18 37.18 42 31.23 42L10.77 42C4.82 42 0 37.18 0 31.23L0 10.77C0 4.82 4.82 0 10.77 0L10.77 0"/><path transform="translate(8.62 11.85)" fill="#f3f3f7" d="M1.39 7.97C1.39 7.97 11.39 3.95 14.86 2.54C16.19 1.97 20.7 0.16 20.7 0.16C20.7 0.16 22.78 -0.63 22.61 1.29C22.55 2.09 22.08 4.86 21.62 7.86C20.93 12.11 20.18 16.75 20.18 16.75C20.18 16.75 20.06 18.05 19.08 18.28C18.1 18.5 16.48 17.48 16.19 17.26C15.96 17.09 11.85 14.54 10.35 13.29C9.94 12.95 9.48 12.28 10.41 11.48C12.49 9.61 14.97 7.29 16.48 5.82C17.17 5.14 17.86 3.56 14.97 5.48C10.87 8.26 6.82 10.86 6.82 10.86C6.82 10.86 5.9 11.43 4.16 10.92C2.43 10.41 0.4 9.73 0.4 9.73C0.4 9.73 -0.98 8.88 1.39 7.97L1.39 7.97"/></svg>